{
  "asset": {"version": "2.0", "generator": "MARSTHEGAME authored beacon v1"},
  "buffers": [
    {
      "byteLength": 192,
      "uri": "data:application/octet-stream;base64,"
    }
  ],
  "bufferViews": [
    {"buffer": 0, "byteOffset": 0, "byteLength": 72, "target": 34962},
    {"buffer": 0, "byteOffset": 72, "byteLength": 72, "target": 34962},
    {"buffer": 0, "byteOffset": 144, "byteLength": 48, "target": 34963}
  ],
  "accessors": [
    {"bufferView": 0, "componentType": 5126, "count": 6, "type": "VEC3", "min": [-0.8, -1.5, -0.8], "max": [0.8, 1.5, 0.8]},
    {"bufferView": 1, "componentType": 5126, "count": 6, "type": "VEC3"},
    {"bufferView": 2, "componentType": 5123, "count": 24, "type": "SCALAR"}
  ],
  "meshes": [
    {
      "name": "beacon",
      "primitives": [
        {"attributes": {"POSITION": 0, "NORMAL": 1}, "indices": 2, "mode": 4}
      ]
    }
  ],
  "nodes": [{"mesh": 0}],
  "scenes": [{"nodes": [0]}],
  "scene": 0
}
